<svg xmlns="http://www.w3.org/2000/svg" width="366" height="366"><path d="m304 197 3 1 .36 2.378a136266.757 136266.757 0 0 0 5.141 33.99 42299.018 42299.018 0 0 0 2.35 15.527c1.018 6.74 2.04 13.481 3.13 20.211l.428 2.648c.248 1.52.5 3.038.756 4.556 1.463 8.942 2.936 19.683-2.165 27.69-5.718 7.623-11.46 13.017-21 15-2.92.099-5.815.143-8.735.14l-2.7.01c-2.994.008-5.987.01-8.98.011l-6.43.015c-5.83.013-11.658.02-17.487.024l-10.925.012c-11.395.013-22.79.023-34.184.027-13.152.004-26.305.022-39.457.05-10.166.023-20.333.033-30.5.034-6.071.001-12.143.007-18.215.025-5.713.016-11.427.018-17.14.01-2.094-.001-4.189.003-6.283.013-2.865.013-5.73.007-8.595-.004l-2.494.025C73.92 320.308 66.121 316.956 59 310c-2.793-3.548-5-6.406-5-11l-1.645.84-2.167 1.098-2.145 1.09c-6.415 3.053-12.613 2.748-19.23.41-5.745-2.52-9.247-6.176-11.946-11.797-1.999-6.087-1.917-13.216.758-19.079 3.548-6 8.805-9.481 15.375-11.562 8.301-1.114 13.793 1.055 20.5 5.75L55 267c6.394-2.807 10.844-8.603 15.313-13.813 4.6-5.35 9.668-10.234 14.687-15.187l2.523-2.895C90 233 90 233 92.438 232.828c3.55 1.624 5.932 4.119 8.562 6.922l1.54 1.594a330.078 330.078 0 0 1 3.003 3.153c1.382 1.426 2.852 2.765 4.324 4.097C112 251 112 251 112.383 253.359l-.258 2.391c-.336 6.837 1.319 11.824 5 17.563 4.546 4.25 9.64 6.84 15.938 7.125 7.272-.809 12.146-2.689 16.937-8.438 3.824-5.6 4.405-10.273 4-17l-.473-2.016c-.722-3.082-1.084-5.047.578-7.843 1.873-2.153 3.865-4.135 5.895-6.141 1.894-2.045 3.757-4.119 5.625-6.188A283.659 283.659 0 0 1 176 222l1-1c2.155 0 4.31.007 6.465.059 2.495-.058 4.663-.484 7.097-.996 2.577-.279 3.954-.32 6.254.902 2.215 1.88 4.162 3.949 6.184 6.035a528.98 528.98 0 0 0 3.8 3.316c10.557 9.403 10.557 9.403 12.282 15.524.157 3.418.068 6.744-.082 10.16 1.017 5.253 4.098 8.415 8.086 11.738 5.662 3.733 11.312 4.047 17.914 3.262 2.285-.827 4.255-1.793 6.344-3.027C253 267 253 267 256 266c1.135-2.295 1.135-2.295 2-5l1.047-2.215c1.548-4.525 1.145-9.153 1.121-13.898 1.16-5.423 3.973-8.056 7.832-11.887l1.994-2.05a525.674 525.674 0 0 1 6.131-6.137l2.09-2.077c1.334-1.325 2.669-2.649 4.005-3.972 2.267-2.247 4.524-4.505 6.78-6.764l15-15Z" fill="#5B4C99"/><path d="M269.953 111.875c7.282-.166 15.416-.231 21.485 4.313 5.301 5.819 6.213 12.357 7.203 19.91a1252.092 1252.092 0 0 1 1.204 8.9c.404 3.06.83 6.118 1.257 9.176.264 1.953.527 3.907.789 5.861l.384 2.756c1.372 10.65 1.372 10.65-1.552 15.193l-1.66 1.766-1.903 2.047a581.052 581.052 0 0 1-9.535 9.516 122.4 122.4 0 0 0-5.586 6.128c-5.023 5.79-10.429 11.208-15.828 16.643a737.184 737.184 0 0 0-3.683 3.744 857.253 857.253 0 0 1-5.38 5.45l-1.644 1.697c-3.064 3.047-5.156 4.697-9.504 5.025l-2.09.336c-13.588 1.674-13.588 1.674-19.081-1.65-3.95-3.27-7.204-7.076-10.418-11.055-1.897-2.193-4.124-3.862-6.411-5.631-2.315-3.473-2.166-4.626-2-8.688.11-6.99-.311-12.77-5-18.312v-2c-7.99-4.143-16.373-5.987-25.293-3.313-5.128 2.718-8.638 6.972-11.02 12.188-.966 4.395-1.253 8.74-.21 13.133.5 2.16.718 3.778.523 5.992-1.255 1.848-1.255 1.848-3.016 3.73l-1.941 2.107L158 219l-1.92 2.096a788.765 788.765 0 0 1-5.768 6.216l-1.97 2.127-1.916 2.05-1.706 1.829c-4.699 4.596-8.077 5.368-14.47 5.807l-2.344.281c-4.73.334-7.347-.28-10.992-3.386A132.36 132.36 0 0 1 113 232l-1.963-2.077c-5.482-5.872-5.482-5.872-7.861-8.577-3.626-3.83-6.033-5.832-11.434-5.998-5.921.255-8.847 3.524-12.742 7.652l-2.684 2.621c-4.708 4.266-4.708 4.266-8.316 9.379h-2l-.688 1.938C64 239 64 239 61.376 239.75L59 240c-1.183-3.525-.838-6.178-.215-9.814l.6-3.578.678-3.89c.23-1.354.458-2.71.687-4.065.614-3.634 1.237-7.267 1.863-10.899 1.033-6.012 2.048-12.027 3.067-18.042.255-1.509.511-3.017.768-4.526a1895.688 1895.688 0 0 0 5.222-32.26c.587-3.81 1.173-7.62 1.74-11.434.375-2.535.763-5.068 1.153-7.601l.31-2.188c.936-5.978 2.595-10.205 6.94-14.453 5.064-3.575 9.468-4.504 15.609-4.48l3.605.005 3.723.037 3.77.002c9.199.045 9.199.045 11.48 1.186 1.25 3.752 1.155 7.267 1.176 11.176l.072 4.947c.035 2.594.064 5.187.078 7.781.015 2.508.056 5.014.1 7.522l-.006 2.33c.117 5.174 1.195 8.123 4.58 12.244 5.21 3.907 11.731 3.89 18 3 2.213-1.448 2.213-1.448 4-3h2l.938-2.375C152 155 152 155 153 153c.132-2.577.21-5.132.246-7.71l.1-4.712c.047-2.477.092-4.955.13-7.432.04-2.39.092-4.78.145-7.17l.026-2.238c.088-3.69.187-6.662 2.353-9.738 2.615-1.308 4.575-1.149 7.504-1.177l3.489-.039 3.784-.022 3.871-.025c2.706-.014 5.412-.025 8.118-.032 3.469-.011 6.936-.046 10.404-.085 3.307-.033 6.613-.037 9.92-.046l3.778-.053 3.499.009 3.084-.018c2.549.488 2.549.488 4.378 2.29 1.759 3.301 1.572 6.568 1.542 10.218l.053 4.787c.01 2.501.014 5.002.012 7.504.003 2.424.03 4.847.06 7.271l-.025 2.239c.078 5.466 1.423 8.663 4.529 13.179 5.067 3.831 10.896 3.8 17 3 5.16-2.346 7.84-5.842 10-11 .53-2.83.559-5.58.54-8.453.01-.782.023-1.564.035-2.37.035-2.476.044-4.95.05-7.427.016-2.49.038-4.98.072-7.47.02-1.543.029-3.087.027-4.63.037-3.76.137-5.442 2.276-8.65 5.23-1.009 10.64-.9 15.953-1.125Z" fill="#397A9C"/><path d="m209 47 2.594.992c14.258 6.182 23.65 18.77 29.281 32.82 2.269 6.047 3.239 11.662 3.302 18.114l.039 3.469.022 3.703.025 3.84c.014 2.673.025 5.346.032 8.02.011 3.419.046 6.837.085 10.255.033 3.274.037 6.548.046 9.822l.053 3.71-.009 3.458.018 3.034c-.624 3.531-2.025 5.206-4.488 7.763-3.426 1.442-4.7 1.118-8.188-.25C229 154 229 154 227 151c-.265-2.299-.265-2.299-.287-5.031l-.04-3.107-.017-3.362-.044-3.473c-.047-3.676-.08-7.351-.112-11.027-.041-4.813-.095-9.625-.156-14.438l-.016-3.312c-.162-12.649-1.867-24.658-10.336-34.61-9.375-8.937-19.98-11.994-32.648-11.85-10.454.658-20.117 5.378-27.219 13.085-8.129 10.06-9.41 20.376-9.434 32.98l-.076 7.51c-.029 3.924-.053 7.848-.071 11.771a2206.84 2206.84 0 0 1-.103 11.407v3.558l-.04 3.318-.016 2.908c-.458 3.182-1.511 5.08-3.385 7.673-3.13 1.565-6.61 1.697-10 1-2.62-2.09-3.864-3.279-4.494-6.616l.008-3.004-.018-3.42.043-3.687.003-3.812c.006-2.665.02-5.329.046-7.994.034-3.389.042-6.777.04-10.166.001-3.26.019-6.518.036-9.778l.007-3.65c.205-18.454 5.467-32.487 18.079-46.123C163.317 42.02 188.174 38.36 209 47Z" fill="#3A8492"/><path d="m97.422 112.77 3.605.005 3.723.037 3.77.002c9.199.045 9.199.045 11.48 1.186 1.25 3.752 1.155 7.267 1.176 11.176l.072 4.947c.035 2.594.064 5.187.078 7.781.015 2.508.056 5.014.1 7.522l-.006 2.33c.117 5.174 1.195 8.123 4.58 12.244 5.21 3.907 11.731 3.89 18 3 2.213-1.448 2.213-1.448 4-3h2l.938-2.375C152 155 152 155 153 153c.132-2.577.21-5.132.246-7.71l.1-4.712c.047-2.477.092-4.955.13-7.432.04-2.39.092-4.78.145-7.17l.026-2.238c.096-4.021.503-6.038 2.353-9.738h23v1l-1.82.076c-2.706.116-5.412.238-8.118.362l-2.865.119-2.724.127-2.524.11c-1.952 0-1.952 0-2.949 1.206a234.15 234.15 0 0 0-.316 8.523l-.063 2.598c-.066 2.751-.125 5.503-.184 8.254l-.13 5.547c-.22 8.538-.22 8.538-.307 17.078l-1.875 1.313c-2.783 2.21-3.123 4.344-4.125 7.687h-28l-.341-1.774c-.715-2.415-1.74-3.811-3.202-5.847-4.085-7.173-2.982-15.456-2.77-23.441.026-1.646.048-3.29.069-4.936.055-4.002.14-8.001.244-12.002l-2-1-3-2a109.04 109.04 0 0 0-8.188-.125l-2.271.027c-1.847.024-3.694.06-5.541.098v2l-2.012.043c-4.483.242-7.258.44-10.988 3.082-2.304 3.312-3.291 5.907-4 9.875.316 1.67.652 3.336 1 5-.159 2.516-.437 4.999-.746 7.5-.323 2.528-.323 2.528-.102 5.188L79 152l-3 2c-.825 3.449-1 6.442-1 10l-.957 2.738c-1.237 3.87-1.526 7.415-1.73 11.45l-.143 2.154c-.185 3.219-.2 5.57.83 8.658l-2 6c-.45 2.99-.746 5.987-1 9h-2l.688 2.813L69 210l-1.402 1.383c-2.09 2.115-2.318 3.78-2.848 6.68l-.516 2.66c-.443 2.306-.443 2.306.766 4.277h6c.7-3.153 1-5.727 1-9h2l2 2c2.11-1.97 3.793-3.574 5.063-6.188C82 210 82 210 85 209l3 1v2l5.957-.098C96 212 96 212 99 213l1-5h3c.981 3.053.981 4.947 0 8 3.105 1.21 3.105 1.21 7 1l2 1-1 6 3.875.625c2.227.535 2.227.535 4.125 1.375 1.25 3.063 1.25 3.063 2 6 1.934 1.068 1.934 1.068 4 1l2-1 1 2c3.417.167 3.417.167 7 0l2-2 2.438-.813c3.23-1.496 3.849-3.133 5.562-6.187 2-1.625 2-1.625 4-3 2.383-2.108 3.699-4.097 5-7h3l1-3h2c.903-4.062.99-7.805.875-11.938-.052-5.282.666-8.428 3.125-13.062l.938-2.813c1.292-2.661 2.397-3.07 5.062-4.187l1-2c7.624-3.28 18.092-3.778 25.934-.938 4.882 3.03 9.128 7.436 11.066 12.938-.383 2.242-.383 2.242-1 4a782.74 782.74 0 0 1-3-4.375l-1.688-2.46C201 185 201 185 201 183c-7.99-4.143-16.373-5.987-25.293-3.313-5.128 2.718-8.638 6.972-11.02 12.188-.966 4.395-1.253 8.74-.21 13.133.5 2.16.718 3.778.523 5.992-1.255 1.848-1.255 1.848-3.016 3.73l-1.941 2.107L158 219l-1.92 2.096a788.765 788.765 0 0 1-5.768 6.216l-1.97 2.127-1.916 2.05-1.706 1.829c-4.699 4.596-8.077 5.368-14.47 5.807l-2.344.281c-4.73.334-7.347-.28-10.992-3.386A132.36 132.36 0 0 1 113 232l-1.963-2.077c-5.482-5.872-5.482-5.872-7.861-8.577-3.626-3.83-6.033-5.832-11.434-5.998-5.921.255-8.847 3.524-12.742 7.652l-2.684 2.621c-4.708 4.266-4.708 4.266-8.316 9.379h-2l-.688 1.938C64 239 64 239 61.376 239.75L59 240c-1.183-3.525-.838-6.178-.215-9.814l.6-3.578.678-3.89c.23-1.354.458-2.71.687-4.065.614-3.634 1.237-7.267 1.863-10.899 1.033-6.012 2.048-12.027 3.067-18.042.255-1.509.511-3.017.768-4.526a1895.688 1895.688 0 0 0 4.74-29.14l.482-3.12c.587-3.81 1.173-7.62 1.74-11.434.375-2.535.763-5.068 1.153-7.601l.31-2.188c.936-5.978 2.595-10.205 6.94-14.453 5.064-3.575 9.468-4.504 15.609-4.48Z" fill="#54487E"/><path d="M347 140c5.322 4.612 9.444 10.23 10.277 17.379.301 7.882-1.482 13.662-6.34 19.871-5.173 5.522-11.45 7.854-18.937 8.313-6.972-.308-12.487-3.597-17.875-7.813-4.818-6.235-6.826-12.131-6.516-20.04A29.578 29.578 0 0 1 316 141c9.625-6.65 20.899-7.05 31-1Z" fill="#338196"/><path d="M92.426 232.816c3.67 1.688 6.02 4.203 8.761 7.121l1.616 1.67A707.29 707.29 0 0 1 107 246l2 2-3 1c-1.648-1.04-1.648-1.04-3.375-2.625l-1.855-1.676c-1.525-1.464-2.997-2.983-4.457-4.512-2.122-2.21-2.122-2.21-4.376-3.25-2.151-.124-2.151-.124-4.124 1.813-1.991 2.204-1.991 2.204-2.813 5.25h-2l-.688 1.75C80.66 248.584 78.57 249.968 76 252c-2.876 2.964-5.509 5.745-6 10l2 1-7 2-.25 2.375c-.75 2.625-.75 2.625-2.375 4-3.912 1.03-7.768.429-11.375-1.375l-2 2-1.063-3.438c-.765-1.941-.765-1.941-1.937-3.562-5.106-1.67-9.043-.884-14 1l-1 2h-4a125.024 125.024 0 0 0-4 6h-2c-.196 1.75-.381 3.5-.563 5.25l-.316 2.953c-.11 2.56.102 4.378.879 6.797l3-1-.75 2.25c-.582 2.871-.582 2.871 1.563 5 2.06 1.774 2.06 1.774 4.187 2.75v2h2l-1-3 9-1v3l1.5-.938c5.484-2.33 10.768-2.352 16.5-1.062v3h2c3.488 3.756 5.872 7.296 8 12h13v3c12.282.678 24.396 1.328 36.66.156 3.595-.168 6.786.312 10.34.844 2.583.042 5.167.041 7.75 0 6.92-.11 6.92-.11 10.25 1 1.969.098 3.94.135 5.912.14l3.742.018 4.114.003 4.327.015c3.922.013 7.843.02 11.765.024 2.453.003 4.906.007 7.358.012 7.68.013 15.36.023 23.04.027 8.853.004 17.706.022 26.558.05 6.85.023 13.699.033 20.548.034 4.087.001 8.174.007 12.261.025 3.85.016 7.701.018 11.551.01 1.407-.001 2.814.003 4.22.013 8.093.054 15.004-.527 22.604-3.371l3-.938c2.5-1.328 2.913-2.499 4-5.062l1.45-1.352c5.163-5.489 4.842-14.338 4.655-21.375L316 283l-2-1c.095-.583.19-1.165.29-1.766.831-6.154.36-11.366-.81-17.449-.577-3.347-.634-6.4-.48-9.785h1c9.958 37.535 9.958 37.535 4.234 50.063-5.064 7.948-11.074 13.842-20.222 16.519-3.537.735-7.147.562-10.747.558l-2.7.01c-2.994.008-5.987.01-8.98.011l-6.43.015c-5.83.013-11.658.02-17.487.024l-10.925.012c-11.395.013-22.79.023-34.184.027-13.152.004-26.305.022-39.457.05-10.166.023-20.333.033-30.5.034-6.071.001-12.143.007-18.215.025-5.713.016-11.427.018-17.14.01-2.094-.001-4.189.003-6.283.013-2.865.013-5.73.007-8.595-.004l-2.494.025C73.92 320.308 66.121 316.956 59 310c-2.793-3.548-5-6.406-5-11l-1.645.84-2.167 1.098-2.145 1.09c-6.415 3.053-12.613 2.748-19.23.41-5.745-2.52-9.247-6.176-11.946-11.797-1.999-6.087-1.917-13.216.758-19.079 3.548-6 8.805-9.481 15.375-11.562 8.301-1.114 13.793 1.055 20.5 5.75L55 267c6.394-2.807 10.844-8.603 15.313-13.813 4.6-5.35 9.668-10.234 14.687-15.187l2.523-2.895C90 233 90 233 92.426 232.816Z" fill="#5E3B7B"/><path d="m304 197 3 1c1.2 7.77 2.39 15.541 3.572 23.314.55 3.609 1.1 7.217 1.658 10.825.538 3.48 1.07 6.963 1.595 10.445.3 1.977.608 3.953.916 5.928l.546 3.64.492 3.21C316 258 316 258 315 261h-3l-.367-3.691-.508-4.872-.238-2.423c-.397-3.74-.876-7.286-1.961-10.893C308 236 308 236 308.063 232.625c-.058-3.306-.411-4.84-1.563-7.813-2.045-5.548-1.767-10.974-1.5-16.812-4.106.039-4.106.039-8 1-1.73 3.455-1.73 3.455-3 7-2.5.625-2.5.625-5 1a87.917 87.917 0 0 0-3 5 262.496 262.496 0 0 1-5 4l-2.063 2.625C277 231 277 231 274.813 232L273 233l-.375 2.375C272 238 272 238 269 239.875c-3.31 1.863-3.31 1.863-3.875 5.438a138.958 138.958 0 0 0-.063 7.187c-.13 7.274-2.34 11.306-7.062 16.5l-2 3h-4l-2 2c-5.378 1.112-10.64 1.27-16 0v2l-3-1 1-2-2.688-.813c-5.277-1.892-8.11-3.34-10.875-8.312-3.397-7.226-4.822-15.1-6.437-22.875h-4l-1.188-3.375c-1.296-3.138-1.296-3.138-4.312-4.75L200 232c-1.688-2.5-1.688-2.5-3-5-2.93-2.93-6.018-2.368-9.938-2.375l-2.208-.074c-4.326-.047-4.326-.047-7.795 2.285-1.164 2.257-1.164 2.257-2.059 5.164l-2.438.938c-2.704.828-2.704.828-3.875 3.187L168 238h-2l-1 3c-3.492 2.619-6.887 4.548-11 6 1.415-3.182 3.123-5.417 5.52-7.934l2.1-2.216 2.192-2.287 2.159-2.276a735.217 735.217 0 0 1 4.165-4.346 153.08 153.08 0 0 0 3.341-3.581c1.811-1.97 3-3.25 5.664-3.813l2.109.203c3.354.24 6.03.021 9.313-.688 2.576-.278 3.953-.32 6.253.903 2.215 1.88 4.162 3.949 6.184 6.035a528.98 528.98 0 0 0 3.8 3.316c10.557 9.403 10.557 9.403 12.282 15.524.157 3.418.068 6.744-.082 10.16 1.017 5.253 4.098 8.415 8.086 11.738 5.662 3.733 11.312 4.047 17.914 3.262 2.285-.827 4.255-1.793 6.344-3.027C253 267 253 267 256 266c1.135-2.295 1.135-2.295 2-5l1.047-2.215c1.548-4.525 1.145-9.153 1.121-13.898 1.16-5.423 3.973-8.056 7.832-11.887l1.994-2.05a525.674 525.674 0 0 1 6.131-6.137c.69-.686 1.38-1.37 2.09-2.077 1.334-1.325 2.669-2.649 4.005-3.972 2.267-2.247 4.524-4.505 6.78-6.764l15-15Z" fill="#4B6391"/><path d="m172 46-4 1v2l-1.938.875c-2.214.953-2.214.953-3.062 3.125h-2v2l-2.25.688c-3.287 1.568-4.633 3.392-6.75 6.312l-2 2h-4c-1.081 2.018-1.951 3.739-2.375 6-.853 2.73-2.618 3.993-4.625 6-2.386 5.024-3.15 9.906-3.621 15.39C135 94 135 94 133.986 97.653c-1.071 4.243-1.23 8.174-1.146 12.532l.016 2.245c.017 2.336.048 4.672.082 7.008.027 2.362.052 4.723.07 7.084.013 1.462.03 2.925.054 4.387.017 1.697-.017 3.395-.062 5.092l-1 1a235.648 235.648 0 0 0-1 7h3l-.625 2.375L133 149l2 2 7-2-.016-3.494c-.018-4.363-.03-8.726-.039-13.09-.005-1.872-.012-3.744-.02-5.616-.185-40.41-.185-40.41 6.075-49.8h2v-3l1.875-.813C154.3 72.044 154.3 72.044 156 69h2v-2c6.75-4 6.75-4 9-4v-2c4.12-1.998 7.452-2.178 12-2-3.325 2.749-6.831 4.354-10.75 6.125C159.091 69.512 152.457 76.297 149 86c-2.162 7-2.295 13.56-2.309 20.855l-.076 7.51c-.029 3.924-.053 7.848-.071 11.771a2206.84 2206.84 0 0 1-.103 11.407v3.558l-.04 3.318-.016 2.908c-.458 3.182-1.511 5.08-3.385 7.673-3.13 1.565-6.61 1.697-10 1-2.62-2.09-3.864-3.279-4.494-6.616l.008-3.004-.018-3.42.043-3.687.003-3.812c.006-2.665.02-5.329.046-7.994.034-3.389.042-6.777.04-10.166.001-3.26.019-6.518.036-9.778l.007-3.65c.205-18.454 5.467-32.487 18.079-46.123C152.454 52.271 163.787 43.262 172 46Z" fill="#474F8B"/><path d="M269.953 111.875c7.282-.166 15.416-.231 21.485 4.313 6.217 6.824 6.174 13.904 6.562 22.812h-2c-1.316-3.62-2-6.096-2-10l-4-2v-3l-2-1-1-3h-4v-3h-2l-1 2a294.16 294.16 0 0 1-6.063-1.563c-2.094-.547-2.094-.547-4.937-.437h-11c-2.3 8.178-2.23 16.143-2.125 24.563A1935.829 1935.829 0 0 0 256 156l-2-.001v3c-1.46 1.387-1.46 1.387-3.375 2.688l-1.898 1.324C247 164 247 164 245 164l-1 2c-2 2-2 2-5.625 2.313-4.541-.108-8.279-1.437-12.375-3.313l-2.035-.86c-2.351-1.364-3.548-2.83-5.153-5.015l-1.542-2.055c-2.754-4.49-2.335-9-2.149-14.117l.072-2.337c.076-2.455.16-4.91.244-7.366l.159-5.004c.129-4.082.264-8.164.404-12.246l-3.063-.076C175.928 115 175.928 115 158 114v-1c7.51-.093 15.02-.164 22.531-.207 3.488-.021 6.975-.05 10.462-.095 4.01-.052 8.017-.07 12.027-.089l3.797-.062 3.518-.001 3.102-.027C216 113 216 113 217.831 114.8c1.755 3.303 1.57 6.57 1.54 10.22l.053 4.787c.01 2.501.014 5.002.012 7.504.003 2.424.03 4.847.06 7.271l-.025 2.239c.078 5.466 1.423 8.663 4.529 13.179 5.067 3.831 10.896 3.8 17 3 5.16-2.346 7.84-5.842 10-11 .53-2.83.559-5.58.54-8.453.01-.782.023-1.564.035-2.37.035-2.476.044-4.95.05-7.427.016-2.49.038-4.98.072-7.47.02-1.543.029-3.087.027-4.63.037-3.76.137-5.442 2.276-8.65 5.23-1.009 10.64-.9 15.953-1.125Z" fill="#3AA78D"/><path d="M91 113c4.458-.029 8.917-.047 13.375-.063l3.852-.025 3.671-.01 3.396-.016C118 113 118 113 120 114c1.25 3.752 1.155 7.267 1.176 11.176l.072 4.947c.035 2.594.064 5.187.078 7.781.015 2.508.056 5.014.1 7.522l-.006 2.33c.117 5.174 1.195 8.123 4.58 12.244 5.21 3.907 11.731 3.89 18 3 2.213-1.448 2.213-1.448 4-3h2l.938-2.375C152 155 152 155 153 153c.132-2.577.21-5.132.246-7.71l.1-4.712c.047-2.477.092-4.955.13-7.432.04-2.39.092-4.78.145-7.17l.026-2.238c.096-4.021.503-6.038 2.353-9.738h23v1l-1.82.076c-2.706.116-5.412.238-8.118.362l-2.865.119-2.724.127-2.524.11c-1.952 0-1.952 0-2.949 1.206a234.15 234.15 0 0 0-.316 8.523l-.063 2.598c-.066 2.751-.125 5.503-.184 8.254l-.13 5.547c-.22 8.538-.22 8.538-.307 17.078l-1.875 1.313c-2.783 2.21-3.123 4.344-4.125 7.687h-28l-.341-1.774c-.715-2.415-1.74-3.811-3.202-5.847-4.085-7.173-2.982-15.456-2.77-23.441.026-1.646.048-3.29.069-4.936.055-4.002.14-8.001.244-12.002l-2-1a101.46 101.46 0 0 1-3-3h2v-2H91v-1Z" fill="#465B85"/><path d="M313 253h1c9.958 37.535 9.958 37.535 4.234 50.063-5.067 7.953-11.046 13.759-20.154 16.519-2.395.481-4.6.544-7.044.545l-3.035.009-3.316-.007-3.513.006c-3.193.003-6.387.002-9.58 0-3.401-.003-6.803 0-10.204 0-5.767.003-11.534 0-17.301-.005-5.798-.004-11.596-.005-17.395 0-38.243.032-76.457-.282-114.692-1.13v-1l2.799-.007c22.494-.06 44.988-.135 67.481-.229 10.878-.045 21.756-.084 32.634-.11 9.483-.023 18.967-.057 28.45-.103 5.02-.024 10.039-.042 15.058-.049 4.73-.006 9.459-.026 14.188-.056 1.731-.009 3.462-.013 5.193-.011 8.81.006 16.879-.152 25.197-3.435l3-.938c2.5-1.328 2.913-2.499 4-5.062l1.45-1.352c5.163-5.489 4.842-14.338 4.655-21.375L316 283l-2-1c.095-.583.19-1.165.29-1.766.831-6.154.36-11.366-.81-17.449-.577-3.347-.634-6.4-.48-9.785Z" fill="#5A3E73"/><path d="M39 296v3l1.5-.938c5.484-2.33 10.768-2.352 16.5-1.062v3h2c3.488 3.756 5.872 7.296 8 12h13v3c12.282.678 24.396 1.328 36.66.156 3.594-.168 6.786.316 10.34.844 3.896.028 7.777-.063 11.672-.16C142 316 142 316 145 318c2.515.367 2.515.367 5.324.414l3.115.117 3.249.094 3.283.117c2.676.095 5.352.18 8.029.258v1c-11.71.07-23.419.123-35.128.155-5.438.016-10.876.037-16.314.071-5.252.033-10.503.05-15.756.059-1.999.005-3.998.016-5.998.032-2.81.022-5.619.025-8.429.024l-2.48.032C73.928 320.32 66.128 316.963 59 310c-2.793-3.548-5-6.406-5-11l-1.645.84-2.167 1.098-2.145 1.09c-3.394 1.615-6.018 2.088-9.73 2.034l-2.45-.027L34 304v-1l6-1-1.934-.332-2.504-.48-2.496-.458L31 300l-1-3c3.073-.91 5.801-1.089 9-1Z" fill="#7F4773"/><path d="M297 140h2c.6 4.161 1.187 8.324 1.764 12.488.198 1.414.398 2.828.602 4.242.294 2.04.577 4.08.857 6.122l.523 3.713c.309 4.178.286 7.832-2.023 11.42l-1.66 1.765-1.903 2.047a581.052 581.052 0 0 1-9.535 9.516 127.238 127.238 0 0 0-5.723 6.28c-4.832 5.576-10.104 10.716-15.34 15.907A5315.409 5315.409 0 0 1 256 224l-.999-3 1-2h2l1-5 4-1v-4l3-1 1.875-2.875c2.206-3.244 3.787-4.242 7.125-6.125 1.018-1.32 2.022-2.65 3-4h2v-2h2v-8l8-1v-3l-2-2 1-2h2v3h2l.875-1.875C295 176 295 176 297 174c.281-2.074.281-2.074.188-4.375l-.02-2.336c-.091-2.238-.091-2.238-.67-4.136-.546-2.36-.627-4.462-.63-6.883l-.005-2.682.012-2.775-.012-2.811.004-2.67.004-2.446C296 141 296 141 297 140Z" fill="#3D9782"/><path d="M310 153h2l-.035 2.012c-.084 6.551-.084 6.551 1.035 12.988h4v2h-3l2 1v3c3.967 1.803 7.682 2.492 12 3l1 4 7 1-1-4c3.228-2.152 4.284-2.2 8-2 .235-.598.47-1.196.71-1.813 1.589-2.694 3.26-3.57 5.915-5.187 3.138-2.294 4.233-3.25 4.965-7.121-.025-3.006-.194-5.9-.59-8.879h2c2.35 4.7 1.517 11.24-.063 16.125-2.856 6.534-7.207 11.453-13.75 14.375-7.35 2.48-13.415 2.63-20.5-.688-6.349-3.567-10.153-7.54-12.972-14.253-1.254-4.488-1.025-8.945-.715-13.559h2v-2Z" fill="#464476"/><path d="M158 113c7.51-.093 15.02-.164 22.531-.207 3.488-.021 6.975-.05 10.462-.095 4.01-.052 8.017-.07 12.027-.089l3.797-.062 3.518-.001 3.102-.027C216 113 216 113 217.831 114.8c1.755 3.303 1.57 6.57 1.54 10.22l.053 4.787c.01 2.501.014 5.002.012 7.504.003 2.424.03 4.847.06 7.271l-.025 2.239c.078 5.466 1.423 8.663 4.529 13.179 5.052 3.82 10.91 3.826 17 3 4.037-2.055 6.93-4.694 10-8l1 5c-4.75 4-4.75 4-7 4l-1 2c-2 2-2 2-5.625 2.313-4.541-.108-8.279-1.437-12.375-3.313l-2.035-.86c-2.351-1.364-3.548-2.83-5.153-5.015l-1.542-2.055c-2.754-4.49-2.335-9-2.149-14.117l.072-2.337c.076-2.455.16-4.91.244-7.366l.159-5.004c.129-4.082.264-8.164.404-12.246l-3.063-.076C175.928 115 175.928 115 158 114v-1Z" fill="#468788"/><path d="m304 197 3 1c1.2 7.77 2.39 15.541 3.572 23.314.55 3.609 1.1 7.217 1.658 10.825.538 3.48 1.07 6.963 1.595 10.445.3 1.977.608 3.953.916 5.928l.546 3.64.492 3.21C316 258 316 258 315 261h-3l-.367-3.691-.508-4.872-.238-2.423c-.397-3.74-.876-7.286-1.961-10.893C308 236 308 236 308.063 232.625c-.058-3.306-.411-4.84-1.563-7.813-2.045-5.548-1.767-10.974-1.5-16.812-4.106.039-4.106.039-8 1-1.73 3.455-1.73 3.455-3 7-2.5.625-2.5.625-5 1a87.917 87.917 0 0 0-3 5 116.744 116.744 0 0 1-5 4 177.475 177.475 0 0 0-4 4v-3h2l.75-3.188c1.843-6.3 6.251-9.724 11.09-13.84 3.063-2.796 5.717-5.895 8.398-9.054C301 199 301 199 304 197Z" fill="#407488"/><path d="M176 58c3.666-.147 7.332-.234 11-.313l3.121-.126c6.265-.1 10.115.518 15.208 4.234 2.087 1.505 4.133 2.177 6.608 2.83 2.278.602 2.278.602 4.063 1.375l1 3c2.249 1.96 4.328 3.664 7 5 .354 1.328.685 2.662 1 4 1.722 3.248 1.722 3.248 5 4 1.313 2.313 1.313 2.313 2 5a178.655 178.655 0 0 1-2 4c.274 2.009.617 4.009 1 6 .026 1.416.026 2.834 0 4.25-.28 3.564-.28 3.564 1 5.75a446.628 446.628 0 0 1-.742 6.27c-.463 4.9-.333 9.812-.258 14.73l-2 1-1 22h-1l-.025-1.938c-.086-6.7-.186-13.401-.292-20.102-.038-2.495-.073-4.99-.105-7.486-.046-3.602-.104-7.204-.164-10.806l-.035-3.341c-.237-12.672-1.897-24.71-10.387-34.686-9.188-8.76-19.437-11.838-31.804-11.704l-2.39.014c-1.932.012-3.865.03-5.798.049v-3Z" fill="#428C83"/><path d="m155 246 1 3 2 2c.365 3.33.138 6.656 0 10l.016 2.121c-.253 6.29-3.8 10.429-8.016 14.879l-2 1-1 3h-3l-1 5-6 1v-2l-7-2v2l-2-1 1-2-1.863-.148-2.45-.227c-.8-.07-1.6-.14-2.425-.21C120 282 120 282 117 280c-2.113-.633-2.113-.633-4-1l-1-8h-2c-.886-2.66-1.18-4.48-1.316-7.23l-.127-2.432-.12-2.526-.13-2.56A2136.33 2136.33 0 0 1 108 250l4 1-.105 1.871c-.252 7.859.962 13.789 5.23 20.441 4.546 4.25 9.64 6.84 15.938 7.125 7.272-.808 12.146-2.688 16.937-8.437 5.382-7.88 4.292-15.957 3-25l2-1Z" fill="#5D427D"/><path d="m172 46-4 1v2l-1.938.875c-2.214.953-2.214.953-3.062 3.125h-2v2l-2.25.688c-3.287 1.568-4.633 3.392-6.75 6.312l-2 2h-4c-1.081 2.018-1.951 3.739-2.375 6-.853 2.73-2.618 3.993-4.625 6-2.056 4.328-3.024 8.563-3.438 13.313-.42 4.099-1.31 7.766-2.562 11.687h-1l-1-6-1 57h-1c-.047-7.39-.082-14.779-.104-22.169-.01-3.432-.024-6.864-.047-10.296-.026-3.957-.036-7.914-.044-11.87l-.032-3.689c-.002-18.5 5.351-32.575 17.977-46.226C152.454 52.271 163.787 43.262 172 46Z" fill="#555D87"/><path d="M196 44c13.715 1.016 24.296 7.866 33.75 17.625 11.206 13.094 14.76 28.332 14.543 45.234l-.013 3.85c-.014 3.334-.04 6.668-.074 10.002-.031 3.419-.044 6.838-.06 10.258A4361.77 4361.77 0 0 1 244 151h-1l-.062-2.21c-.197-6.914-.403-13.828-.617-20.741-.11-3.553-.216-7.106-.316-10.66-.114-4.096-.243-8.192-.372-12.287l-.101-3.821C241.3 94.325 240.66 87.766 239 81l-6-1c-1.044-3.133-.934-3.99 0-7h-2l-.375-2.438L230 68l-2-1-1-3-3-2-1.375-1.438C218.112 56.224 214.029 55.511 208 55l-1-5-10-2-1-4Z" fill="#44957E"/><path d="M196.934 177.063c4.882 3.03 9.128 7.435 11.066 12.937-.383 2.242-.383 2.242-1 4a782.74 782.74 0 0 1-3-4.375l-1.688-2.46C201 185 201 185 201 183c-7.99-4.143-16.373-5.987-25.293-3.313-5.128 2.718-8.638 6.972-11.02 12.188-.966 4.395-1.253 8.74-.21 13.133.73 3.16 1.082 5.074-.653 7.922-1.854 2.123-3.823 4.084-5.824 6.07-1.588 1.83-3.171 3.663-4.75 5.5-2.234 2.594-2.234 2.594-4.25 4.5h-3c-1.564 1.275-1.564 1.275-3 2.938-3.833 4.222-7.504 4.285-13.063 4.687-1.249.095-2.498.19-3.785.29C123 237 123 237 121 236v-2l-3-1c3.22-1.073 3.902-.8 7 0l2-1 1 2c3.417.167 3.417.167 7 0l2-2 2.438-.813c3.23-1.496 3.849-3.133 5.562-6.187 2-1.625 2-1.625 4-3 2.383-2.108 3.699-4.097 5-7h3l1-3h2c.903-4.062.99-7.805.875-11.938-.052-5.282.666-8.428 3.125-13.062l.938-2.813c1.292-2.661 2.397-3.07 5.062-4.187l1-2c7.624-3.28 18.092-3.778 25.934-.938Z" fill="#466185"/><path d="M100 208h3c.981 3.053.981 4.947 0 8 3.105 1.21 3.105 1.21 7 1l2 1-1 6 8 2 1 5h-2l1.5 1.375C121 234 121 234 121 236c2.564-.087 5.125-.194 7.688-.313l2.185-.068c6.132-.308 9.794-2.309 14.44-6.306.886-.764 1.773-1.527 2.687-2.313-.79 4.422-2.689 6.643-6.09 9.488-6.312 3.28-13.94 3.514-20.91 2.512-3.696-1.517-5.483-3.96-8-7a439.76 439.76 0 0 0-5.888-5.86c-3.067-3.017-6.089-6.079-9.112-9.14h3c.092-1.462.092-1.462-2-4 .375-2.688.375-2.688 1-5Z" fill="#50527E"/><path d="M179 59c-3.325 2.749-6.831 4.354-10.75 6.125C159.091 69.512 152.457 76.297 149 86c-2.167 7.037-2.342 13.698-2.414 21.031l-.059 3.733c-.06 3.912-.106 7.824-.152 11.736-.037 2.661-.077 5.323-.117 7.984-.096 6.505-.181 13.01-.258 19.516h-1l-.031-2.061c-.108-7.073-.223-14.145-.341-21.218-.044-2.64-.085-5.28-.125-7.92-.058-3.794-.122-7.586-.187-11.38l-.05-3.582-.06-3.336-.048-2.934c-.144-2.335-.593-4.313-1.158-6.569.488-2.691.488-2.691 1.313-5.563l.8-2.878C146 80 146 80 148 77h2v-3l1.875-.813C154.3 72.044 154.3 72.044 156 69h2v-2c6.75-4 6.75-4 9-4v-2c4.12-1.998 7.452-2.178 12-2Z" fill="#52618A"/><path d="M156 114h23v1l-1.82.076c-2.706.116-5.412.238-8.118.362l-2.865.119-2.724.127-2.524.11c-1.952 0-1.952 0-2.949 1.206a234.15 234.15 0 0 0-.316 8.523l-.063 2.598c-.066 2.751-.125 5.503-.184 8.254l-.13 5.547c-.22 8.538-.22 8.538-.307 17.078l-1.875 1.313c-2.782 2.208-3.227 4.318-4.125 7.687h-10l-1-2 9-2v-2l4-4c1.263-3.79 1.085-7.303 1.027-11.246l-.037-4.975c-.025-2.611-.053-5.223-.086-7.834-.03-2.522-.048-5.044-.064-7.566l-.04-2.362c-.02-4.161.288-6.194 2.2-10.017Z" fill="#466A8C"/><path d="M92.426 232.816c3.67 1.688 6.02 4.203 8.761 7.121l1.616 1.67A707.29 707.29 0 0 1 107 246l2 2-3 1c-1.648-1.04-1.648-1.04-3.375-2.625l-1.855-1.676c-1.525-1.464-2.997-2.983-4.457-4.512-2.122-2.21-2.122-2.21-4.376-3.25-2.151-.124-2.151-.124-4.124 1.813-1.991 2.204-1.991 2.204-2.813 5.25h-2l-.688 1.75C80.66 248.584 78.57 249.968 76 252c-3.626 3.477-3.626 3.477-5 8l-2.938 1.375C64.93 262.658 64.93 262.658 64 265h-2l-2 4c-.719-1.766-.719-1.766-1-4 1.406-1.86 1.406-1.86 3.5-3.75 2.763-2.591 5.369-5.167 7.813-8.063 4.6-5.35 9.668-10.234 14.687-15.187l2.523-2.895C90 233 90 233 92.426 232.816Z" fill="#5F4380"/><path d="M313 253h1c9.94 37.467 9.94 37.467 4.246 50.055C314.4 309.06 309.94 314.768 303 317v-3l2.375-.75c3.048-1.451 3.35-2.246 4.625-5.25l1.45-1.352c5.163-5.489 4.842-14.338 4.655-21.375L316 283l-2-1 .29-1.766c.831-6.154.36-11.366-.81-17.449-.577-3.347-.634-6.4-.48-9.785Z" fill="#51447C"/><path d="M68 312h12v3c12.282.678 24.396 1.328 36.66.156 3.594-.168 6.786.316 10.34.844 3.896.028 7.777-.063 11.672-.16C142 316 142 316 145 318c-8.415.07-16.83.123-25.246.155-3.909.016-7.817.037-11.726.071-3.78.033-7.56.05-11.34.059-1.434.005-2.868.016-4.302.032-8.552.094-16.241-.49-24.386-3.317v-3Z" fill="#8A3B82"/><path d="M301 199c1.953.617 1.953.617 4 2 .61 2.82.61 2.82.75 6.125l.172 3.32L306 213h-1v-5c-4.106.039-4.106.039-8 1-1.73 3.455-1.73 3.455-3 7-2.5.625-2.5.625-5 1a87.917 87.917 0 0 0-3 5 116.744 116.744 0 0 1-5 4 177.475 177.475 0 0 0-4 4v-3h2l.75-3.188c1.842-6.296 6.245-9.716 11.078-13.832 3.702-3.375 6.925-7.172 10.172-10.98Z" fill="#3B8191"/><path d="M207 199h1l.078 2.336.172 3.039.14 3.023c.32 2.73.32 2.73 2.516 3.82L213 212a139.281 139.281 0 0 1 5 5c1.37 1.4 2.746 2.796 4.125 4.188l2.008 2.042c3.142 2.978 5.067 4.034 9.324 3.922 1.786-.06 3.57-.132 5.356-.214l2.697-.045c6.2-.272 9.157-1.417 13.49-5.893-.265 3.18-.737 4.71-2.898 7.102-6.52 3.99-14.97 3.485-22.382 2.608-6.904-1.802-11.154-7.665-15.357-13.08-1.858-2.222-4.075-3.87-6.363-5.63-2.702-4.054-2.23-6.183-2-11l1-2Z" fill="#427385"/><path d="M158 113a6932.56 6932.56 0 0 1 22.583-.104c3.495-.01 6.99-.024 10.486-.047 4.016-.026 8.032-.035 12.048-.044l3.813-.032h3.519l3.109-.014C216 113 216 113 218 115c.175 2.797.231 5.493.195 8.29l-.008 2.48c-.011 2.618-.037 5.236-.062 7.855-.01 1.773-.02 3.547-.027 5.32A2994.26 2994.26 0 0 1 218 152h-1l-1-36-17.188-.438C185.2 115.206 171.6 114.758 158 114v-1Z" fill="#4A8086"/><path d="m290 185-1 2h-2l-.875 1.813C285 191 285 191 283 194h-2l-1 3c-2.538 2.738-4.889 4.926-8 7l-.476 2.39c-.63 3.14-1.622 4.176-3.903 6.38l-2.04 2.001-2.144 2.042-2.154 2.1A714.401 714.401 0 0 1 256 224l-1-3 1-2h2l1-5 4-1v-4l3-1 1.875-2.875c2.206-3.244 3.787-4.242 7.125-6.125 1.018-1.32 2.022-2.65 3-4h2v-2h2v-8c3.053-.981 4.947-.981 8 0Z" fill="#3C858A"/><path d="M354 153h2c2.115 4.23 1.526 9.833.434 14.332-2.022 5.705-4.197 8.05-9.434 10.668l-1 2c-2.285.633-2.285.633-5.063 1.125l-2.785.508L336 182l-1-4c3.228-2.152 4.284-2.2 8-2 .235-.598.47-1.196.71-1.813 1.589-2.694 3.26-3.57 5.915-5.187 3.138-2.294 4.233-3.25 4.965-7.121-.025-3.006-.194-5.9-.59-8.879Z" fill="#435486"/><path d="M233 70h3a340.49 340.49 0 0 1 2.313 4.75l1.3 2.672c3.799 9.8 4.814 18.983 4.68 29.437l-.013 3.85c-.014 3.334-.04 6.668-.074 10.002-.031 3.419-.044 6.838-.06 10.258A4361.77 4361.77 0 0 1 244 151h-1l-.049-2.197c-.157-6.884-.332-13.767-.526-20.65-.1-3.538-.192-7.075-.269-10.613-.089-4.082-.208-8.162-.328-12.243l-.07-3.79c-.239-7.222-1.295-13.242-3.912-19.994C237 79 237 79 237 75l-3-1c-.688-2.063-.688-2.063-1-4Z" fill="#50887F"/><path d="m172 46-4 1v2l-1.938.875c-2.214.953-2.214.953-3.062 3.125h-2v2l-2.25.688c-3.287 1.568-4.633 3.392-6.75 6.312l-2 2h-3c-2.108.319-2.108.319-4 1l-1 2-2-1c6.608-7.913 20.435-23.855 32-20Z" fill="#4C758D"/><path d="M196.934 177.063c4.882 3.03 9.128 7.435 11.066 12.937-.383 2.242-.383 2.242-1 4a782.74 782.74 0 0 1-3-4.375l-1.688-2.46C201 185 201 185 201 183c-7.99-4.143-16.373-5.987-25.293-3.313-5.303 2.81-8.87 7.16-11.02 12.688L164 195h-1c-.125-3.375-.125-3.375 0-7l2-2 .375-2c.625-2 .625-2 2.625-3.125l2-.875 1-2c7.624-3.28 18.092-3.778 25.934-.938Z" fill="#406A88"/><path d="M91 113c4.458-.029 8.917-.047 13.375-.063l3.852-.025 3.671-.01 3.396-.016C118 113 118 113 120 114c1.274 3.822 1.124 7.407 1.098 11.387l-.005 2.476c-.005 2.608-.018 5.216-.03 7.825-.006 1.768-.01 3.537-.014 5.306-.011 4.335-.028 8.67-.049 13.006-2.51-3.803-2.256-7.662-2.195-12.047l.008-2.337c.011-2.455.037-4.91.062-7.366.01-1.668.02-3.336.027-5.004.022-4.082.057-8.164.098-12.246l-2 1 1 1c.072 1.52.084 3.042.063 4.563l-.028 2.503L118 126h-1v-6l-2-1a101.46 101.46 0 0 1-3-3h2v-2H91v-1Z" fill="#5E6387"/><path d="M228 101h1l.031 1.84c.108 6.31.223 12.62.341 18.93.044 2.356.085 4.712.125 7.069.058 3.383.122 6.766.187 10.15l.05 3.2.06 2.972.048 2.618c.078 2.395.078 2.395 1.158 5.221h8c1.854-3.97 2.294-7.248 2.414-11.613l.117-3.78.094-3.92.117-3.978c.094-3.236.18-6.472.258-9.709h1c.074 4.645.129 9.29.165 13.934.015 1.58.035 3.16.061 4.74.037 2.272.054 4.543.067 6.814.015.707.03 1.413.047 2.14.002 4.896.002 4.896-1.714 7.287-2.303 1.537-3.845 1.956-6.626 2.085-5.2-2.2-5.2-2.2-7-4a81.824 81.824 0 0 1-.114-4.887v-3.155l.016-3.43.005-3.494c.005-3.699.018-7.398.03-11.096.006-2.501.01-5.002.014-7.502.011-6.146.028-12.29.049-18.436Z" fill="#3A7A79"/><path d="m155 246 1 3 2 2c.365 3.33.138 6.656 0 10l.016 2.121c-.249 6.175-3.606 10.706-8.016 14.879-2.23.754-2.23.754-4 1v2l-7 1 2-1v-2c1.61-1.043 1.61-1.043 3.75-2.188 5.043-3.017 6.883-6.28 9-11.75.742-6.119.116-12.001-.75-18.062l2-1Z" fill="#533F7D"/><path d="M33 260c8.22-.606 13.787.606 20.25 5.813 1.714 1.448 1.714 1.448 4 .875L59 266l1 2 2-3 2 1v5c-8.429 1.429-8.429 1.429-13-1l-2 2-1.313-3.438L46 265l-3-1-1-2c-2.126-.467-2.126-.467-4.563-.625l-2.503-.227L33 261v-1Zm36 0 1 2 2 1-8 2c1-3 1-3 3.063-4.188L69 260Z" fill="#66427D"/><path d="M216 243h1l.078 2.344c.478 8.77 1.708 15.003 8.36 21.031 2.692 2.135 5.243 3.62 8.562 4.625v2l14-1v2c-5.021.78-8.977 1.13-14 0v2l-3-1 1-2-2.688-.813c-5.537-1.985-8.208-3.525-11.062-8.75-3.01-6.475-4.344-13.457-2.25-20.437Z" fill="#485383"/><path d="m100.813 113.688 3.833.068c3.12.059 6.236.14 9.354.244v2l-18 1v2l-2.012.078c-5.532.356-8.954.753-12.988 4.922.317-3.703 1.332-6.355 4.05-8.964 4.665-2.479 10.636-1.52 15.763-1.349Z" fill="#4C4C80"/><path d="M63 208h1c.764 5.29 1.033 9.705 0 15l1 2h5l1 3c-1.313 1.5-1.313 1.5-3 3h-3l-1 2-3 1-2 1c.499-9.233 2.042-17.985 4-27Z" fill="#5C4595"/><path d="m297 177 3 1c-3.322 4.004-6.732 7.783-10.438 11.438-3.505 3.458-6.781 7.036-9.996 10.765-2.093 2.402-4.214 4.646-6.566 6.797h-2c.475-4.276 2.953-6.166 6-9l2.188-2.313C281 194 281 194 283 194l.75-2.938L285 188c2.063-.688 2.063-.688 4-1l1-3c1.438-1.688 1.438-1.688 3-3h2l2-4Z" fill="#42877F"/><path d="M347 140c4.11 3.64 7.49 7.63 9 13-1.875-.688-1.875-.688-4-2l-.758-2.379c-1.7-3.586-3.679-4.244-7.242-5.871l-3.25-1.516L338 140l-2-1c-6.357-.54-11.497-.537-17 3l-2.875 1.688L314 145c1.278-3.977 3.681-5.251 7.148-7.168 8.418-3.783 18.083-2.504 25.852 2.168Z" fill="#589185"/><path d="M100 208h3c.981 3.053.981 4.947 0 8 3.105 1.21 3.105 1.21 7 1l2 1-1 6 8 2 1 5-3 1-.75-1.875c-1.51-2.567-2.61-2.843-5.25-4.125-2.75-2.5-2.75-2.5-5-5v-2l-1.813-.75c-2.58-1.474-3.769-2.637-5.187-5.25.313-2.75.313-2.75 1-5Z" fill="#50529A"/><path d="m256 115 3 1-1.488 3.496c-2.338 7.013-1.832 14.273-1.7 21.567.016 1.452.03 2.904.042 4.357.032 3.527.084 7.053.146 10.58h-2v3h-2l-1-7 2 2 .06-3.365c.076-4.111.165-8.222.257-12.333.039-1.781.074-3.562.105-5.343.045-2.557.103-5.113.164-7.67l.035-2.421c.151-5.64.151-5.64 2.379-7.868Z" fill="#389689"/><path d="m260.688 113.875 3.011.055L266 114v1l-2.152.184-2.786.254c-.916.08-1.833.162-2.777.246-2.247.076-2.247.076-3.285 1.316-.135 2.714-.21 5.406-.246 8.121l-.1 5.022c-.047 2.65-.092 5.302-.13 7.953-.04 2.55-.092 5.1-.145 7.65l-.026 2.412c-.126 5.615-.126 5.615-2.353 7.842-.074-5.66-.129-11.32-.165-16.98-.015-1.926-.035-3.853-.061-5.78-.037-2.765-.054-5.53-.067-8.295-.015-.864-.03-1.729-.047-2.62 0-2.426 0-2.426.34-6.325 3.42-2.28 4.682-2.22 8.688-2.125Z" fill="#4A857F"/><path d="m279 222 1 3-1 2h-2v4l-1.938.688L273 233l-.375 2.375C272 238 272 238 269.062 240.188L266 242l-2 2-2-5 17-17Z" fill="#44758F"/><path d="M297 154h1c.502 3.625 1.001 7.25 1.5 10.875l.434 3.129.41 2.988.38 2.761C301 176 301 176 301 178l-2.438.375L296 179l-1 2h-2l-1 3h-2v-3l-2-2 1-2h2v3h2l.875-1.875C295 176 295 176 297 174c.281-2.074.281-2.074.188-4.375l-.02-2.336c-.097-2.272-.097-2.272-.707-4.344-.727-3.066.008-5.879.539-8.945Z" fill="#30A38E"/><path d="M349 175h2c-1.386 3.35-2.776 4.834-5.875 6.688l-2.055 1.261c-3.722 1.89-6.988 2.189-11.132 2.176l-2.598.008C327 185 327 185 324 184l-1-5h2v2c10.554.225 10.554.225 21-1 1.22-1.94 1.22-1.94 2-4l1-1Z" fill="#49427D"/><path d="M225 87c3 2 3 2 3.516 4.395.437 7.26.553 14.445.363 21.714l-.072 3.312c-.075 3.443-.16 6.886-.244 10.329-.054 2.354-.107 4.708-.159 7.063-.128 5.729-.263 11.458-.404 17.187h-1l-.031-1.938c-.109-6.7-.224-13.401-.341-20.102-.043-2.495-.085-4.99-.125-7.486-.059-3.602-.122-7.204-.187-10.806l-.05-3.341A234.158 234.158 0 0 0 225 87Z" fill="#548885"/><path d="M39 296v3l1.625-.938C43.398 296.822 46 296.41 49 296v3l-4 1 1 3c-2.882.96-4.699 1.106-7.688 1.063l-2.449-.028L34 304v-1l6-1-1.934-.332-2.504-.48-2.496-.458L31 300l-1-3c3.073-.91 5.801-1.089 9-1Z" fill="#903881"/><path d="M116 115h3l1 39h2c2 3 2 3 1.625 5.188L123 161c-6-6-6-6-6.098-9.57.007-1.59.02-3.18.035-4.77l.012-2.537c.016-3.597.044-7.195.072-10.792.018-2.62.03-5.239.041-7.858l.026-2.478c.128-4.13.128-4.13-1.088-7.995Z" fill="#454F83"/><path d="M179 59c-3.344 2.755-6.893 4.432-10.813 6.25-5.166 2.465-9.215 5.082-12.953 9.465L154 76h-2a56.54 56.54 0 0 1 4-7h2v-2c6.75-4 6.75-4 9-4v-2c4.12-1.998 7.452-2.178 12-2Z" fill="#43757F"/><path d="M18 291h3a370.618 370.618 0 0 1 4 4.063c1.853 1.989 1.853 1.989 4 2.937v2l14 1-1 2c-7.047.529-12.524.728-18.375-3.563-2.217-1.96-4.014-3.953-5.625-6.437v-2Z" fill="#783B6D"/><path d="M211 64c2.438.813 2.438.813 5 2l1 3c2.249 1.96 4.328 3.664 7 5 .563 1.75.563 1.75 1 4l.688 2.5c.366 2.932-.292 3.975-1.688 6.5l-1.102-2.379C219.863 78.277 216.86 73.091 212 68l1-1-2-1v-2Z" fill="#449481"/><path d="M310 153h2l-.035 2.012c-.084 6.551-.084 6.551 1.035 12.988h4v2h-3l-1 5c-3.162-2.587-4.083-5.05-5-9-.157-3.674-.118-7.326 0-11h2v-2Z" fill="#3E5E7F"/><path d="M156 114h23v1l-1.804.06c-2.69.095-5.38.205-8.071.315-.937.03-1.874.062-2.84.094l-2.715.117-2.507.095c-2.283.145-2.283.145-4.063 2.319a95.231 95.231 0 0 0-.414 7.633l-.059 2.278c-.06 2.405-.106 4.81-.152 7.214l-.117 4.887c-.096 3.996-.18 7.992-.258 11.988h-1c-.193-4.768-.371-9.537-.537-14.307-.058-1.622-.12-3.243-.187-4.865a997.84 997.84 0 0 1-.253-7l-.097-2.191c-.121-4.092.18-5.849 2.074-9.637Z" fill="#406580"/><path d="m146 279 1 3h-3l-1 5-6 1v-2l-7-2v2l-2-1 1-4c1.958-.195 3.916-.38 5.875-.563l3.305-.316C141 280 141 280 143 281h3v-2Z" fill="#653F94"/><path d="M287 114v2c-4.52-.118-9.041-.242-13.562-.372-1.538-.044-3.077-.085-4.615-.125-2.21-.058-4.419-.122-6.628-.187l-2.09-.05c-4.877-.152-4.877-.152-7.105-1.266 5.81-5.81 26.63-1.933 34 0Z" fill="#55948B"/><path d="m145 224 3 1c-1.599 4.157-4.613 7.2-8 10-3.423 1.141-6.464 1.365-10.063 1.625-1.249.095-2.498.19-3.785.29C123 237 123 237 121 236v-2l-3-1c3.22-1.073 3.902-.8 7 0l2-1 1 2c3.417.167 3.417.167 7 0l2-2 2.438-.813c3.2-1.483 4.042-3.066 5.562-6.187v-1Z" fill="#4C5A98"/><path d="M88 210v2l3.75-.063c6.235.055 6.235.055 8.25 1.063 2.25 3.063 2.25 3.063 4 6l-1.59-.93c-2.98-1.323-5.748-1.733-8.972-2.195l-3.442-.508c-2.99-.428-2.99-.428-5.996-.367a92.764 92.764 0 0 1-4-1c2.023-4.48 3.204-5.439 8-4Z" fill="#504684"/><path d="M336 139c3.627.584 6.468 1.547 9.688 3.313l2.324 1.238c2.217 1.616 2.983 2.928 3.988 5.449l-3 1-1 2-4-1v-7h-4v-2l-4 1v-4Z" fill="#40A88B"/><path d="M65 313h3v2c9.382 2.163 18.614 2.426 28.188 2.625 1.54.038 3.079.077 4.619.117 3.73.095 7.462.18 11.193.258v1c-5.408.1-10.815.172-16.223.22-1.837.02-3.674.047-5.51.082a672.76 672.76 0 0 1-7.954.089l-2.46.062c-5.957.002-9.696-1.472-14.853-4.453v-2Z" fill="#7B3A6A"/><path d="m250 155 2 2c-.185 2.866-.792 3.812-2.938 5.75C247 164 247 164 245 164l-1 2c-2 2-2 2-3.945 2.195L234 168l4-2-7-1v-1l1.977-.078c5.758-.374 9.488-1.051 14.023-4.922 1.833-2.106 1.833-2.106 3-4Z" fill="#418D8C"/><path d="M288 115c4.354 1.935 6.272 4.268 8.219 8.46 1.55 5.04 1.621 10.3 1.781 15.54h-2l-.621-3.176-.817-4.137-.408-2.091c-.582-2.939-1.206-5.75-2.154-8.596h-2c-2-3-2-3-2-6Z" fill="#509481"/><path d="M196 44c9.02.668 16.72 3.636 24 9-2 1-2 1-4.25.293L213 52.188c-5.274-2.014-10.44-3.271-16-4.188l-1-4Z" fill="#4C9586"/><path d="M310 233h1v5h2l3 23-2-1-2 1c-2.296-18.82-2.296-18.82-2-28Z" fill="#4A608C"/><path d="m290 185-1 2h-2l-.875 1.813C285 191 285 191 283 194h-2l-1 3a67.709 67.709 0 0 1-7.75 7.188c-2.325 1.615-2.325 1.615-3.25 3.812h-2c1.373-4.944 3.772-6.325 8-9a122.59 122.59 0 0 0 3-4h2v-2h2v-8c3.053-.981 4.947-.981 8 0Z" fill="#2EA191"/><path d="m181.328 42.902 2.422.01 2.5.026 2.547.013c2.068.012 4.135.03 6.203.049v2c-2.97 1.72-4.915 2.22-8.328 1.977l-2.422-.157-2.5-.195-2.547-.172A786.442 786.442 0 0 1 173 46v-2c2.852-.814 5.366-1.119 8.328-1.098Z" fill="#4D8A85"/><path d="M313 253h1c1.367 5.154 2.539 10.342 3.625 15.563.26 1.238.52 2.477.79 3.753.577 3.63.689 7.015.585 10.684-1.438-1-1.438-1-3-3-.302-1.844-.585-3.694-.75-5.555-.293-2.869-.8-5.67-1.313-8.507-.754-4.407-1.14-8.477-.937-12.938Z" fill="#545482"/><path d="M181 176c7.793-.65 13.771-.792 20.117 4.148 2.925 2.877 5.507 5.946 6.883 9.852-.383 2.242-.383 2.242-1 4a782.74 782.74 0 0 1-3-4.375l-1.688-2.46C201 185 201 185 201 183l-1.625-.813c-2.375-1.187-2.375-1.187-5-2.75-4.423-1.883-8.613-2.164-13.375-2.437v-1Z" fill="#3A7284"/><path d="M69 170h1c1.446 8.24.302 15.835-1 24l-3 1c.518-8.444 1.456-16.68 3-25Z" fill="#5A4B7D"/><path d="M218 153h2l1.563 3.25c2.314 3.97 5.058 6.301 9.437 7.75 3.664.583 7.294.866 11 1-4.873 2.97-9.59 1.958-15 1-5.091-1.95-6.715-5.261-9-10v-3Z" fill="#338084"/><path d="m17 273 1 4h3l-1 2c-.134 3.673-.167 6.499 1 10l3-1-2 5-1-2h-4c-1.074-3.223-1.133-5.615-1.125-9l-.008-3.188C16 276 16 276 17 273Z" fill="#6C3B79"/><path d="m330.813 137.875 2.957.055 2.23.07-2 3c-1.99.388-3.994.708-6 1-3.03.915-6.016 1.946-9 3 .188-2.375.188-2.375 1-5 3.666-1.938 6.71-2.224 10.813-2.125Z" fill="#3B918A"/><path d="m155 155 3 3-2.375 1.625c-2.96 2.677-3.671 4.56-4.625 8.375h-10l-1-2 9-2v-2a180.655 180.655 0 0 1 4-4l2-3Z" fill="#40699D"/><path d="M170 228c0 3.531-.502 3.89-2.813 6.375-2.454 2.73-4.333 5.447-6.187 8.625-2.128 2.59-3.697 3.43-7 4 1.373-3.052 2.96-5.248 5.258-7.672l1.894-2.012 1.973-2.066 1.996-2.113A1485.66 1485.66 0 0 1 170 228Z" fill="#555C89"/><path d="M91 234c4.993.373 7.43 2.949 10.688 6.438l1.47 1.525A604.491 604.491 0 0 1 107 246l2 2-3 1c-1.648-1.04-1.648-1.04-3.375-2.625l-1.844-1.684L99 243l-2.875-2.688C94 238 94 238 93 235l-2-1Z" fill="#503F71"/><path d="m78 133 2 1-.219 2.668-.281 3.52-.281 3.48c-.184 2.793-.261 5.535-.219 8.332l-4 2c.585-7.094 1.632-14.016 3-21Z" fill="#544993"/><path d="M301 199c1.953.617 1.953.617 4 2 .61 2.82.61 2.82.75 6.125l.172 3.32L306 213h-1v-5h-8l1.438-1.688c1.686-2.495 2.152-4.357 2.562-7.312Z" fill="#368F9D"/><path d="m120 158 1.215 1.207c4.557 4.248 8.778 6.24 14.785 7.793v1h-13l-.375-1.813c-.58-2.45-.58-2.45-2.625-5.187v-3Z" fill="#4C5B9E"/><path d="M217 261c4 4.75 4 4.75 4 7l3 1-1 2h-6c-1.072-3.216-1.146-5.634-1-9l1-1Z" fill="#4E5CA0"/><path d="M60 224h2l1 4 5-1 1 2-1 2h-3l-1 2-3 1-2 1 1-11Z" fill="#65508F"/><path d="m156 51 1 2-2.375 1.25c-2.778 1.852-3.332 2.794-4.625 5.75-2.077 2.455-4.155 3.577-7 5l-1 2-2-1c10.035-12.017 10.035-12.017 16-15Z" fill="#5B708A"/><path d="m61 230 6 1c-1 3-1 3-3 4a78.037 78.037 0 0 0-2 5l-4-1c.7-3.147 1.76-6.026 3-9Z" fill="#5A4579"/><path d="m119 278 10 2v2h8v1c-2.083.054-4.166.093-6.25.125l-3.516.07c-3.086-.186-4.745-.406-7.234-2.195l-1-3Z" fill="#59357F"/><path d="M72 216h2l2 2 3-2 1 2-7 8-2-1 .5-2.25c.62-2.94.62-2.94.5-6.75Z" fill="#5A4998"/><path d="M148 81c1.592 3.184.287 6.28-.438 9.625-.22 1.06-.22 1.06-.447 2.14-.365 1.747-.74 3.491-1.115 5.235-2.692-4.038-2.692-4.038-3-7 .996-2.578.996-2.578 2.438-5.25l1.433-2.703L148 81Z" fill="#495A84"/><path d="m155 246 1 3 2 2c.125 3.125.125 3.125 0 6h-2v6h-1l-2-16 2-1Z" fill="#534F82"/><path d="m142 149 3 1c-.313 1.938-.313 1.938-1 4-3.694 1.231-6.206.644-10 0v-3l3.438-.438c3.37-.174 3.37-.174 4.562-1.562Z" fill="#4C568E"/><path d="M197.813 55.75c3.15.247 5.346.913 8.187 2.25l1-2 1 8-1.758-1.059C201.827 60.37 198.201 58.4 193 58c2-2 2-2 4.813-2.25Z" fill="#399B89"/><path d="m238.066 223.902 2.496.036 2.504.027L245 224v2l4 1h-19l-1-2c1.454.03 1.454.03 2.938.063 3.277-.067 3.22-1.023 6.128-1.16Z" fill="#36889B"/><path d="m124 159 3.25 1.938c5.36 2.728 10.826 2.865 16.75 3.062v1c-2.771.054-5.541.094-8.313.125-.785.017-1.57.034-2.38.05l-2.295.02-2.11.032C127 165 127 165 124 163v-4Z" fill="#535D89"/><path d="M96 116v3l-2.012.078c-5.532.356-8.954.753-12.988 4.922.365-2.52.583-3.678 2.637-5.266 4.3-2.064 7.475-3.223 12.363-2.734Z" fill="#4F4D94"/><path d="M70 179h2c0 11.375 0 11.375-1 16h-3l2-16Z" fill="#5B4794"/><path d="M300 158h1c.362 2.624.715 5.249 1.063 7.875l.314 2.262c.736 5.636.736 5.636-.377 7.863h-2v-18Z" fill="#4D8A7F"/><path d="M50 297c-1.375 1.5-1.375 1.5-3 3h-2l1 3c-2.882.96-4.699 1.106-7.688 1.063l-2.449-.028L34 304v-1l8-1 .813-2.438L44 297c3-1 3-1 6 0Z" fill="#8A447A"/><path d="M158.688 64.375 161 65l-1 2h-2v2a158.814 158.814 0 0 1-6 5c-.082-3.044.024-5.072 1-8 3-2 3-2 5.688-1.625Z" fill="#427799"/><path d="M349 175h2c-1.394 3.372-2.843 4.905-5.938 6.813l-2.09 1.332C341 184 341 184 338 183l-1-2 1.898-.078 2.477-.172 2.46-.14c2.342-.397 2.342-.397 3.392-2.594L348 176l1-1Z" fill="#4D507A"/><path d="M311 163h1l1 5h4v2h-3l-1 5c-2.523-1.974-2.993-2.967-3.688-6.188L309 166h2v-3Z" fill="#495983"/><path d="m66 258 3 1a158.814 158.814 0 0 1-5 6h-2l-2 4c-.715-1.766-.715-1.766-1-4 1.434-1.922 1.434-1.922 3.438-3.75l1.996-1.86L66 258Z" fill="#613E75"/><path d="M352 151c2.31 1.803 2.951 2.68 3.398 5.629l-.023 2.934.023 2.94L355 165l-3 2 2-5-2-1v-10Z" fill="#3D908D"/><path d="M204 47c6.635.355 10.632 2.131 16 6-2 1-2 1-4.496.328l-2.941-1.078-2.934-1.047C207.135 50.062 205.754 49.07 204 47Z" fill="#538E80"/><path d="M310 304c0 3.414-.33 5.022-2 8-3.137 2.395-5.97 4-10 4l1-3h2.125c4.463-1.552 6.333-5.165 8.875-9Z" fill="#563F90"/><path d="m262 259 2 1c-1.53 3.444-3.617 6.095-6 9l-2 3-3-2 1.875-1.188c2.481-2.116 2.995-3.8 4.125-6.812 1.625-1.813 1.625-1.813 3-3Z" fill="#486297"/><path d="m184.313 176.375 3.8.336L191 177v1l-2.633.148-3.492.227-3.445.21c-3.384.41-6.246 1.225-9.43 2.415v-3c4.316-2.162 7.552-2.07 12.313-1.625Z" fill="#47748B"/><path d="m69 260 1 2 2 1-8 2c1-3 1-3 3.063-4.188L69 260Zm-7 5 2 1v5l-5-1 3-5Z" fill="#6C3C8E"/><path d="m278 195 3 1c-2.649 2.727-5.298 5.291-8.25 7.688-2.767 2.016-2.767 2.016-3.75 4.312h-2c1.373-4.944 3.772-6.325 8-9 1.833-2.106 1.833-2.106 3-4Z" fill="#339693"/><path d="M200 181c3.44 1.147 3.878 1.845 5.75 4.813l1.36 2.082c1.059 2.504.814 3.598-.11 6.105a577.383 577.383 0 0 1-2.938-4.25l-1.652-2.39c-1.306-2.186-1.96-3.875-2.41-6.36Z" fill="#366C7B"/><path d="M354 153h2c1.225 2.45 1.167 4.142 1.188 6.875l.042 2.617c-.241 2.632-.9 4.248-2.23 6.508-1.067-3.462-1.102-6.64-1.063-10.25l.028-3.266L354 153Z" fill="#3F6E72"/><path d="M207 199h1l.367 2.52.508 3.292.492 3.27c.484 3.091.484 3.091 2.633 5.918-3.161-1.37-3.993-1.99-6-5-.4-3.42-.564-6.873 1-10Z" fill="#507489"/><path d="M206 179c2.29 3.435 2.178 4.985 2 9h-2l-4-7 4-2Z" fill="#34889A"/><path d="M340.125 176.188 342 177l1 3-7 2-1-4c3-2 3-2 5.125-1.813Z" fill="#465093"/><path d="M255 147c.91 3.073 1.089 5.801 1 9h-2v3h-2l-1-7 2 2 2-7Z" fill="#359C96"/><path d="m130 147 .688 1.813c1.691 2.82 3.364 3.783 6.312 5.187h4v2c-7.357.362-7.357.362-10-1.125-1.421-2.664-1.198-4.91-1-7.875Z" fill="#494C74"/><path d="M58 266c1.063 1.875 1.063 1.875 2 4l-1 2c-2.938-.375-2.938-.375-6-1l-1-2 1-2c2.563-.625 2.563-.625 5-1Z" fill="#734585"/><path d="M313 253h1l2 8 .594 2.031c.635 3.078-.064 5.905-.594 8.969h-1c-1.173-6.378-2.295-12.503-2-19Z" fill="#3E4D78"/><path d="M310 233h1v5h2l-1 11h-1c-1.129-5.361-1.097-10.553-1-16Z" fill="#3A5F8D"/><path d="m160 210 4 1v2l-2.375.313c-2.955.463-2.955.463-4.625 3.687h-2l-1 3-2-2 2-3h3l1-3h2v-2Z" fill="#42659B"/><path d="m208 50 3.313 1.313 1.863.738C215 53 215 53 218 56l-10-1v-5Z" fill="#38A387"/><path d="M57 300h2c3.39 3.556 5.555 5.956 6 11-5.802-5.645-5.802-5.645-8-9v-2Z" fill="#94397F"/><path d="m319 176 9 1 1 5-4-1v-2l-1.875.625L321 180l-2-2v-2Z" fill="#484A90"/><path d="M353 166c1 2 1 2 .438 3.938-1.973 2.83-4.323 3.708-7.438 5.062l-1-3 8-6Z" fill="#416891"/><path d="m335 139-1 2a99.768 99.768 0 0 1-6 1l-2.25.688L324 143l-2-2c4.497-2.248 8.079-2.167 13-2Z" fill="#37A392"/><path d="m21 269 1 2c-.72 1.736-1.447 3.47-2.23 5.18-.944 2.23-1.408 4.43-1.77 6.82h-1c.087-1.96.195-3.917.313-5.875l.175-3.305c.17-.93.338-1.861.512-2.82l3-2Z" fill="#58346E"/><path d="M84 209c2.125.938 2.125.938 4 2-1.75 2.063-1.75 2.063-4 4-2.25-.25-2.25-.25-4-1 1.75-3.875 1.75-3.875 4-5Z" fill="#5A4E9D"/><path d="m68 201 2 3h-2l1 6-3 2c-.25-7.625-.25-7.625 2-11Z" fill="#5A4693"/><path d="m304 197 3 1 1 10c-2-2-2-2-2.125-4.625L306 201h-4l2-4Z" fill="#527981"/><path d="m67 194 4 3-1 5-4-1-1-6 2-1Z" fill="#4F3D8A"/><path d="M347 142c3.471 1.41 4.88 2.906 6.75 6.125l1.297 2.195L356 152h-3l-1.313-2.875c-1.48-3.325-1.48-3.325-4.687-5.125v-2Z" fill="#4C8878"/><path d="m134 88 2 2-3 11h-1V90h2v-2Z" fill="#4D5A98"/><path d="M160 68c-1.44 3.362-3.248 5.592-6 8h-2c1.517-3.54 3.753-8 8-8Z" fill="#45637A"/><path d="M229 62c4.875 4.625 4.875 4.625 6 8-4.75-1.875-4.75-1.875-7-3l1-5Z" fill="#4E9481"/><path d="M112 272a105.022 105.022 0 0 1 5 4v2l3 1c-3.133 1.044-3.99.934-7 0l-1-7Z" fill="#68408F"/><path d="M63 208h1c1.453 8.035 1.453 8.035-.438 12.063L62 222c-1.158-3.475-.773-5.137-.063-8.688l.59-3.011L63 208Z" fill="#635184"/><path d="m229 150 2 1v2l6 1-1 3-7-3v-4Z" fill="#357B6C"/><path d="M141 68h3c-.545 3.818-2.195 5.45-5 8l-2 2c.706-3.669 2.277-6.705 4-10Z" fill="#486698"/><path d="M235 274h9l-2 5-5-1 1-2-3-2Z" fill="#4D569A"/><path d="M312 171h4v3l3 1c-2 2-2 2-5 3l-2-7Z" fill="#434C7F"/><path d="M225 80c2.375.688 2.375.688 5 2 1.313 2.625 1.313 2.625 2 5l-3 2c-1.524-2.983-2.94-5.818-4-9Z" fill="#369F89"/><path d="m26 266 2 1-2 1v-2Zm-1 2c0 3 0 3-2 6h-2l1-5 3-1Z" fill="#623884"/><path d="M306 214c2.21 3.314 2.225 4.345 2.125 8.188l-.055 2.73L308 227c-2.495-4.824-3.078-7.608-2-13Z" fill="#398498"/><path d="m255 218 1 3h-2l-.813 1.938C252 225 252 225 249 226c.75-2.438.75-2.438 2-5 2.125-.813 2.125-.813 4-1v-2Z" fill="#378C9B"/><path d="M345 145h2c1.063 1.813 1.063 1.813 2 4l-1 3-4-1 1-6Z" fill="#33AB8D"/><path d="m114 114 1 2 3 1v9h-1v-6l-2-1a101.46 101.46 0 0 1-3-3h2v-2Z" fill="#515C9A"/><path d="M168 64c-2.688 2.252-4.646 3.882-8 5l-2-2c3.512-2.408 5.727-3.366 10-3Z" fill="#496D84"/><path d="M254 266c2.313.188 2.313.188 4 1-4.395 4.004-4.395 4.004-6 5l-3-1c2.25-2.563 2.25-2.563 5-5Z" fill="#47518C"/><path d="M65 204h1c.268 8.036.268 8.036-2 12a247.613 247.613 0 0 1-.625-4.313l-.352-2.425C63 207 63 207 65 204Z" fill="#4E3B75"/><path d="M297 140h2v9c-1.563-1.688-1.563-1.688-3-4 .313-2.75.313-2.75 1-5Z" fill="#4F9382"/><path d="m83 116 2 1-1.438 1.813c-1.727 2.19-1.727 2.19-2.562 5.187l-3-1c1.293-2.884 2.66-4.872 5-7Z" fill="#5A5482"/><path d="m141 281-3 3-1-1a69.603 69.603 0 0 0-4.063-.563L129 282v-1c8.571-1.286 8.571-1.286 12 0Z" fill="#664883"/><path d="m66 232 3 1-1 2h-2l-2 4-1-4 3-1v-2Z" fill="#4B3B80"/><path d="M63 219c.687 2.49 1 4.379 1 7l-2 2-1-2 1-2-2-1 3-4Z" fill="#53408A"/><path d="m229 142 1 2h2l-1 7-2-1v-8Z" fill="#328E91"/><path d="M53 298c-1.75 2-1.75 2-4 4h-4v-2c4.39-3.203 4.39-3.203 8-2Z" fill="#793969"/><path d="m158 245 3 2-2 3-4-1 1-3 2-1Z" fill="#51559E"/><path d="M218 153h2l3 7-4-1-1-6Z" fill="#3D7D81"/><path d="M312 146h3v5l-3 1c-1.125-3.75-1.125-3.75 0-6Z" fill="#3E7183"/><path d="m221 79 4 1c1 3 1 3 .063 5.188L224 87l-3-8Z" fill="#518B81"/></svg>